<?xml version="1.0" encoding="UTF-8"?>
<svg version="1.1" xmlns="http://www.w3.org/2000/svg" width="993" height="1716">
<path d="M0 0 C1.29292969 0.00064453 2.58585938 0.00128906 3.91796875 0.00195312 C23.09869174 0.08975908 23.09869174 0.08975908 29.875 3.1875 C30.62910156 3.33058594 31.38320313 3.47367187 32.16015625 3.62109375 C36.05844468 4.43440573 39.64267018 5.91998674 43.3515625 7.34765625 C45.90616084 8.34539355 45.90616084 8.34539355 48.875 8.1875 C48.875 8.8475 48.875 9.5075 48.875 10.1875 C49.596875 10.125625 50.31875 10.06375 51.0625 10 C54.54560791 10.23220719 55.93409962 11.29225309 58.875 13.1875 C60.38944762 13.95031218 61.91118305 14.69872358 63.4375 15.4375 C69.42350418 18.39465775 75.14456388 21.76706995 80.875 25.1875 C82.17824219 25.93966797 82.17824219 25.93966797 83.5078125 26.70703125 C86.33582504 28.47570576 88.66702076 30.55069667 91.12890625 32.78515625 C92.82986168 34.26044866 92.82986168 34.26044866 94.8984375 35.15625 C97.19111429 36.3524292 98.31074022 37.62379424 99.9375 39.625 C102.8494825 43.08453477 105.9354267 46.23316647 109.1875 49.375 C116.44338185 56.55081695 122.62232756 64.42286634 127.875 73.1875 C128.535 73.8475 129.195 74.5075 129.875 75.1875 C131.19726325 77.45908046 132.42099457 79.77388004 133.65625 82.09375 C134.82663911 84.30939986 134.82663911 84.30939986 136.875 86.1875 C136.875 86.8475 136.875 87.5075 136.875 88.1875 C137.535 88.8475 138.195 89.5075 138.875 90.1875 C138.875 91.1775 138.875 92.1675 138.875 93.1875 C139.535 93.5175 140.195 93.8475 140.875 94.1875 C141.92480469 96.14257812 141.92480469 96.14257812 143.046875 98.71875 C143.46130859 99.66709717 143.87574219 100.61544434 144.30273438 101.5925293 C144.73908203 102.61386963 145.17542969 103.63520996 145.625 104.6875 C146.07166016 105.72237549 146.51832031 106.75725098 146.97851562 107.82348633 C150.21448741 115.41174649 153.102547 123.06581539 155.71875 130.88671875 C156.62549484 133.4752302 157.61943559 135.76565575 158.875 138.1875 C159.25718767 139.84364657 159.58895102 141.51207024 159.875 143.1875 C160.49781356 146.40448757 161.18972723 149.59282928 161.9609375 152.77734375 C162.16807373 153.63706787 162.37520996 154.49679199 162.58862305 155.38256836 C162.91600464 156.74007202 162.91600464 156.74007202 163.25 158.125 C170.07066814 186.67566446 173.30235131 214.44738237 173.25 243.8125 C173.24918427 245.54546829 173.24918427 245.54546829 173.24835205 247.31344604 C173.18645182 276.06511468 170.09245421 303.18833519 163.52416992 331.18115234 C162.87306753 334.19644941 162.37994879 337.20439497 161.91796875 340.25390625 C160.9564495 346.28018375 159.25234267 351.91196843 157.3125 357.6875 C156.68527497 359.59344652 156.05893643 361.49968505 155.43359375 363.40625 C155.15829834 364.23060547 154.88300293 365.05496094 154.59936523 365.90429688 C153.93854044 367.98722019 153.40440814 370.06855181 152.875 372.1875 C151.8690205 375.31097901 150.77285016 378.4033042 149.6875 381.5 C149.37796387 382.38558594 149.06842773 383.27117187 148.74951172 384.18359375 C146.36441038 390.94320714 143.77902835 397.59594485 141.0390625 404.21875 C140.12270021 406.55578134 139.39105959 408.73921728 138.875 411.1875 C138.215 411.1875 137.555 411.1875 136.875 411.1875 C136.62878906 411.99832031 136.38257813 412.80914063 136.12890625 413.64453125 C134.63202892 417.87402576 132.75965278 421.83788001 130.8125 425.875 C130.09092448 427.3781759 129.37081089 428.88205467 128.65234375 430.38671875 C128.17655884 431.37418091 128.17655884 431.37418091 127.69116211 432.3815918 C126.7623929 434.35442968 126.7623929 434.35442968 125.875 437.1875 C124.87928872 438.1917704 123.87858634 439.19109925 122.875 440.1875 C121.76807336 441.82499731 120.7077502 443.49464042 119.6875 445.1875 C119.15769531 446.05375 118.62789062 446.92 118.08203125 447.8125 C116.64846552 450.1892173 116.64846552 450.1892173 116.875 453.1875 C115.54925518 454.5283789 114.2140337 455.85989151 112.875 457.1875 C111.21518717 459.55269667 109.74127015 462.02603629 108.25 464.5 C102.0716039 474.56129822 95.7650129 484.59508319 88.5703125 493.96875 C82.7444683 501.59335715 76.90767925 509.24158134 71.98828125 517.48828125 C70.29971698 520.06556355 68.26134968 522.3011954 66.21484375 524.59765625 C64.72413805 526.27905879 64.72413805 526.27905879 63.3125 528.8125 C61.54267714 531.73655516 59.29201162 533.77048838 56.875 536.1875 C55.34777563 538.13987061 53.88602524 540.13281346 52.421875 542.1328125 C50.45217703 544.7491285 48.3266436 547.20421897 46.17578125 549.671875 C45.19997994 550.8088447 44.27397708 551.98886389 43.375 553.1875 C41.47766851 555.71727532 39.38319726 558.04855141 37.27734375 560.40625 C35.8004327 562.15533005 35.8004327 562.15533005 34.83984375 564.2890625 C33.875 566.1875 33.875 566.1875 31.5 568.0625 C28.51225119 570.4811538 26.95895662 572.96683977 24.875 576.1875 C23.42242003 577.97498035 21.91925983 579.70833928 20.40234375 581.44140625 C18.17835139 583.98392438 16.03118712 586.587392 13.875 589.1875 C14.22433594 589.6721875 14.57367187 590.156875 14.93359375 590.65625 C18.30269121 595.61922642 19.875 599.14385071 19.875 605.1875 C18.36301807 610.04175776 16.93818908 612.30394646 12.875 615.1875 C11.70986387 617.38682935 11.70986387 617.38682935 10.875 620.1875 C10.61589844 620.78046875 10.35679687 621.3734375 10.08984375 621.984375 C6.9718604 629.69957102 6.53420991 638.55618162 8.4609375 646.6484375 C11.88404693 654.59381994 19.82388131 659.58284757 26.8125 664.125 C41.58630359 673.81796504 52.40957762 686.62297363 56.328125 704.22265625 C56.63990636 706.22051835 56.76630382 708.1681566 56.875 710.1875 C56.91786133 710.91783447 56.96072266 711.64816895 57.00488281 712.40063477 C57.34341023 724.43302749 55.12751075 736.37929519 53.43847656 748.25732422 C49.11184527 778.91165412 49.01882083 806.43302511 68.265625 832.48046875 C71.97251003 837.37869866 75.84058307 842.14914348 79.6875 846.9375 C88.76115958 858.25656824 97.77121196 869.49769361 104.875 882.1875 C105.50148438 883.30511719 106.12796875 884.42273437 106.7734375 885.57421875 C120.09943742 910.67995277 116.64551065 933.50106132 109.18969727 959.64038086 C101.79809036 984.03457441 101.79809036 984.03457441 105.9375 1008.5625 C111.30373348 1017.81100853 119.61173167 1023.26208855 128.15234375 1029.33251953 C141.37224946 1038.76319316 153.04619933 1049.35564019 156.44140625 1065.95703125 C158.65251971 1083.34336547 150.74775612 1099.93958677 143.75 1115.375 C137.12821841 1130.0063245 130.7240876 1146.92289616 135.73046875 1162.87890625 C138.4795267 1168.42393441 142.48905823 1171.93020549 147.5625 1175.3125 C148.11139893 1175.6830249 148.66029785 1176.0535498 149.22583008 1176.43530273 C151.10164358 1177.69728873 152.98691196 1178.94395664 154.875 1180.1875 C175.13457307 1193.53344878 175.13457307 1193.53344878 182.875 1200.1875 C183.71289062 1200.88101562 184.55078125 1201.57453125 185.4140625 1202.2890625 C211.09959917 1224.24980835 219.16094634 1262.34113933 221.68530273 1294.60205078 C221.74790283 1295.45524902 221.81050293 1296.30844727 221.875 1297.1875 C221.96402588 1298.26112793 222.05305176 1299.33475586 222.14477539 1300.44091797 C223.29925465 1316.42709564 222.9133746 1332.4587916 222.77905273 1348.47509766 C222.57361695 1369.25760342 222.57361695 1369.25760342 224.43040466 1389.93487549 C225.16840876 1395.67095825 225.16840876 1395.67095825 223.42553711 1398.73925781 C222.91385986 1399.21717773 222.40218262 1399.69509766 221.875 1400.1875 C220.225 1399.8575 218.575 1399.5275 216.875 1399.1875 C210.98193281 1380.01301952 212.50935416 1359.14882505 212.41870117 1339.30297852 C212.21679881 1299.06921016 211.88448466 1244.80444306 181.875 1213.92578125 C172.81200531 1205.42456808 162.53441757 1198.46208968 152 1191.9375 C139.62100423 1184.26756716 126.84884905 1176.12622885 122.875 1161.1875 C120.67396828 1140.0344267 128.22585253 1121.04938962 136.875 1102.1875 C142.48036892 1089.59612942 148.22672803 1075.78844726 143.3125 1062.0625 C137.94768602 1050.27108593 128.29147334 1042.83824596 117.8125 1035.6875 C105.4095878 1027.1432716 95.18169589 1017.253758 91.875 1002.1875 C90.27309753 984.19095428 94.37883037 968.01338751 99.5 950.9375 C106.04066804 929.09177178 106.75501793 909.67910081 95.76416016 889.04980469 C91.4366083 881.26280825 86.42589318 874.15817609 80.875 867.1875 C80.02255233 866.10356013 79.17101901 865.01890067 78.3203125 863.93359375 C76.49529069 861.60795251 74.66818351 859.28397096 72.83984375 856.9609375 C71.85144488 855.70321742 70.86316873 854.4454009 69.875 853.1875 C69.06893311 852.16317871 69.06893311 852.16317871 68.24658203 851.11816406 C43.85252654 820.02478209 36.43839001 793.32267721 40.97265625 754.296875 C41.7222576 748.19914066 42.62116241 742.13292064 43.5625 736.0625 C46.27186608 718.27948797 46.67648119 702.366052 35.875 687.1875 C31.89860501 681.93785995 27.64893907 678.34840261 22.125 674.8125 C11.65115625 667.83393851 0.27163366 659.99655567 -3.5 647.3125 C-5.38626924 637.43389406 -4.65947854 625.25645707 -0.125 616.1875 C-0.74375 615.94 -1.3625 615.6925 -2 615.4375 C-4.64439985 613.88197068 -5.20169938 613.11128529 -6.125 610.1875 C-6.48814446 604.64954702 -5.87319114 600.43207343 -4.125 595.1875 C-3.196875 595.0946875 -3.196875 595.0946875 -2.25 595 C0.15261141 594.358581 0.15261141 594.358581 1.125 591.625 C1.3725 590.820625 1.62 590.01625 1.875 589.1875 C-0.77728812 588.11224806 -3.40868454 587.09293849 -6.125 586.1875 C-6.125 585.5275 -6.125 584.8675 -6.125 584.1875 C-6.929375 584.001875 -7.73375 583.81625 -8.5625 583.625 C-12.77337033 581.92587689 -15.70570107 579.53691577 -19.171875 576.6484375 C-20.98541194 574.98784183 -20.98541194 574.98784183 -23.125 575.1875 C-24.67578125 573.61328125 -24.67578125 573.61328125 -26.4375 571.5 C-28.39849638 569.16002454 -30.35915133 566.95826622 -32.54296875 564.8203125 C-35.33446744 561.97391292 -37.7413266 558.93443869 -40.125 555.75 C-42.58864564 552.48182008 -45.05448327 549.2437172 -47.7109375 546.12890625 C-49.97603352 543.3690077 -51.87758958 540.59768584 -53.75 537.5625 C-55.36960136 534.94622088 -56.95247666 532.41044112 -58.8359375 529.9765625 C-60.125 528.1875 -60.125 528.1875 -60.125 526.1875 C-60.785 526.1875 -61.445 526.1875 -62.125 526.1875 C-63.83787809 523.67488092 -65.43621226 521.16577346 -67 518.5625 C-67.87156498 517.13230584 -68.74394952 515.70261078 -69.6171875 514.2734375 C-70.03967773 513.58088867 -70.46216797 512.88833984 -70.89746094 512.17480469 C-74.12704819 506.88873344 -74.12704819 506.88873344 -78.125 502.1875 C-79.17690691 500.47705857 -80.19200676 498.74387823 -81.1875 497 C-87.87766984 485.4027841 -94.83439014 473.98236364 -101.9609375 462.6484375 C-102.33186523 462.05514648 -102.70279297 461.46185547 -103.08496094 460.85058594 C-104.02426899 459.34857503 -104.9688518 457.84986592 -105.9140625 456.3515625 C-107.125 454.1875 -107.125 454.1875 -107.125 452.1875 C-107.785 451.8575 -108.445 451.5275 -109.125 451.1875 C-110.1953125 449.41015625 -110.1953125 449.41015625 -111.25 447.25 C-111.60320312 446.53972656 -111.95640625 445.82945312 -112.3203125 445.09765625 C-113.125 443.1875 -113.125 443.1875 -113.125 441.1875 C-113.785 440.8575 -114.445 440.5275 -115.125 440.1875 C-116.14029541 437.86078135 -117.13988198 435.5271553 -118.125 433.1875 C-118.785 432.5275 -119.445 431.8675 -120.125 431.1875 C-120.125 430.5275 -120.125 429.8675 -120.125 429.1875 C-120.785 428.5275 -121.445 427.8675 -122.125 427.1875 C-122.125 426.5275 -122.125 425.8675 -122.125 425.1875 C-122.785 424.5275 -123.445 423.8675 -124.125 423.1875 C-124.80916231 421.19341716 -125.47377686 419.19258176 -126.125 417.1875 C-126.96692116 415.44198829 -127.84407191 413.71316568 -128.75 412 C-131.98540543 405.67263077 -134.71808041 399.17416085 -137.40869141 392.59887695 C-137.73272949 391.812146 -138.05676758 391.02541504 -138.390625 390.21484375 C-138.67711914 389.51093506 -138.96361328 388.80702637 -139.25878906 388.08178711 C-140.18233244 385.92985326 -140.18233244 385.92985326 -142.125 383.1875 C-142.8073624 381.17453093 -143.48467916 379.15971338 -144.13671875 377.13671875 C-145.41137854 373.33289211 -146.7897781 369.57257472 -148.1875 365.8125 C-148.57373535 364.75929565 -148.57373535 364.75929565 -148.96777344 363.68481445 C-150.12832283 360.57813031 -151.27647497 357.96028755 -153.125 355.1875 C-153.59051734 353.87042654 -154.00013121 352.53318283 -154.375 351.1875 C-155.88742065 345.95575919 -157.49061444 340.75715227 -159.125 335.5625 C-159.37411133 334.76328125 -159.62322266 333.9640625 -159.87988281 333.140625 C-161.470761 328.08651132 -163.24467971 323.14091995 -165.125 318.1875 C-167.13352138 312.28691052 -168.49520128 306.43768903 -169.52734375 300.296875 C-170.23926719 296.59301188 -171.17592313 292.96063573 -172.125 289.3125 C-173.91838581 282.30854602 -175.20434768 275.36401344 -176.125 268.1875 C-176.29467285 266.88321045 -176.4643457 265.5789209 -176.63916016 264.23510742 C-178.11112622 252.13389748 -178.43480568 240.15549852 -178.38574219 227.97265625 C-178.37503474 224.8227199 -178.38570066 221.67335659 -178.3984375 218.5234375 C-178.42800538 175.22762018 -169.6005256 134.57720622 -150.01416016 95.95727539 C-149.18313604 94.30321339 -148.37767502 92.63637712 -147.57421875 90.96875 C-146.26154761 88.44955363 -144.87855595 86.3489108 -143.125 84.125 C-141.47154476 81.9852344 -139.99362819 79.96307317 -138.625 77.625 C-136.01265268 73.37993561 -132.57427522 69.79981869 -129.25 66.1015625 C-128.63125 65.40804687 -128.0125 64.71453125 -127.375 64 C-126.80265625 63.36707031 -126.2303125 62.73414063 -125.640625 62.08203125 C-124.06363597 60.25074147 -124.06363597 60.25074147 -123.109375 58.12109375 C-121.47315303 54.90708632 -118.9905074 53.33663055 -116.125 51.1875 C-115.465 51.1875 -114.805 51.1875 -114.125 51.1875 C-114.125 50.5275 -114.125 49.8675 -114.125 49.1875 C-109.25971319 44.01353941 -103.17063713 39.84298478 -97.51879883 35.56445312 C-95.26620067 33.85676791 -93.12667548 32.18917548 -91.125 30.1875 C-88.8897301 28.78247321 -86.61768508 27.46251171 -84.3125 26.17578125 C-81.64035027 24.678264 -79.3025691 23.3650691 -77.125 21.1875 C-75.80175153 20.4711895 -74.45245289 19.80232858 -73.08984375 19.1640625 C-72.27966797 18.7825 -71.46949219 18.4009375 -70.63476562 18.0078125 C-69.78591797 17.61335938 -68.93707031 17.21890625 -68.0625 16.8125 C-67.24072266 16.42578125 -66.41894531 16.0390625 -65.57226562 15.640625 C-63.09466666 14.47882407 -60.61144638 13.33023341 -58.125 12.1875 C-56.9174707 11.63026245 -56.9174707 11.63026245 -55.68554688 11.06176758 C-51.75331697 9.2753205 -47.95277013 7.67900702 -43.75 6.625 C-42.82316406 6.3878125 -41.89632812 6.150625 -40.94140625 5.90625 C-40.01199219 5.6690625 -39.08257812 5.431875 -38.125 5.1875 C-36.31230176 4.66735703 -34.49980097 4.14652546 -32.6875 3.625 C-21.74949824 0.69430222 -11.30712656 -0.10774093 0 0 Z " fill="#56DCFB" transform="translate(546.125,290.8125)"/>
<path d="M0 0 C3.18817247 2.00399412 5.58457588 3.96210739 7.1875 7.375 C7.59541135 11.08189436 7.48475189 14.66265412 7.1875 18.375 C6.5275 18.375 5.8675 18.375 5.1875 18.375 C4.98511719 19.08269531 4.78273438 19.79039062 4.57421875 20.51953125 C2.77257861 24.22938743 0.07683077 26.43401481 -3 29.0625 C-23.24227907 47.1022369 -28.10966302 74.31096268 -31.7734375 100.0859375 C-31.94536621 101.28524902 -32.11729492 102.48456055 -32.29443359 103.72021484 C-32.63278609 106.10717853 -32.96166234 108.49551 -33.27978516 110.88525391 C-34.39730781 118.88198142 -35.81052895 126.77239821 -40.8125 133.375 C-43 134.1875 -43 134.1875 -44.8125 134.375 C-44.8125 135.035 -44.8125 135.695 -44.8125 136.375 C-47.95121188 137.94435594 -50.35105822 137.72701103 -53.8125 137.375 C-58.27807043 133.94793432 -62.11444765 129.00761316 -63.19799805 123.36889648 C-63.35479926 121.10617884 -63.36583176 118.89263886 -63.3125 116.625 C-63.29328491 115.33940186 -63.29328491 115.33940186 -63.27368164 114.02783203 C-62.1535025 76.52676069 -51.80979977 34.14519224 -24.09375 7.42578125 C-16.25903568 0.38258772 -10.53506165 -2.34112481 0 0 Z " fill="#FAFEFF" transform="translate(482.8125,348.625)"/>
<path d="" fill="#000000" transform="translate(0,0)"/>
<path d="" fill="#000000" transform="translate(0,0)"/>
<path d="" fill="#000000" transform="translate(0,0)"/>
<path d="" fill="#000000" transform="translate(0,0)"/>
<path d="" fill="#000000" transform="translate(0,0)"/>
<path d="" fill="#000000" transform="translate(0,0)"/>
<path d="" fill="#000000" transform="translate(0,0)"/>
<path d="" fill="#000000" transform="translate(0,0)"/>
<path d="" fill="#000000" transform="translate(0,0)"/>
<path d="" fill="#000000" transform="translate(0,0)"/>
<path d="" fill="#000000" transform="translate(0,0)"/>
<path d="" fill="#000000" transform="translate(0,0)"/>
<path d="" fill="#000000" transform="translate(0,0)"/>
<path d="" fill="#000000" transform="translate(0,0)"/>
<path d="" fill="#000000" transform="translate(0,0)"/>
<path d="" fill="#000000" transform="translate(0,0)"/>
<path d="" fill="#000000" transform="translate(0,0)"/>
<path d="" fill="#000000" transform="translate(0,0)"/>
<path d="" fill="#000000" transform="translate(0,0)"/>
<path d="" fill="#000000" transform="translate(0,0)"/>
<path d="" fill="#000000" transform="translate(0,0)"/>
<path d="" fill="#000000" transform="translate(0,0)"/>
<path d="" fill="#000000" transform="translate(0,0)"/>
<path d="" fill="#000000" transform="translate(0,0)"/>
<path d="" fill="#000000" transform="translate(0,0)"/>
<path d="" fill="#000000" transform="translate(0,0)"/>
<path d="" fill="#000000" transform="translate(0,0)"/>
<path d="" fill="#000000" transform="translate(0,0)"/>
<path d="" fill="#000000" transform="translate(0,0)"/>
<path d="" fill="#000000" transform="translate(0,0)"/>
<path d="" fill="#000000" transform="translate(0,0)"/>
<path d="" fill="#000000" transform="translate(0,0)"/>
<path d="" fill="#000000" transform="translate(0,0)"/>
<path d="" fill="#000000" transform="translate(0,0)"/>
<path d="" fill="#000000" transform="translate(0,0)"/>
<path d="" fill="#000000" transform="translate(0,0)"/>
<path d="" fill="#000000" transform="translate(0,0)"/>
<path d="" fill="#000000" transform="translate(0,0)"/>
<path d="" fill="#000000" transform="translate(0,0)"/>
<path d="" fill="#000000" transform="translate(0,0)"/>
<path d="" fill="#000000" transform="translate(0,0)"/>
<path d="" fill="#000000" transform="translate(0,0)"/>
<path d="" fill="#000000" transform="translate(0,0)"/>
<path d="" fill="#000000" transform="translate(0,0)"/>
<path d="" fill="#000000" transform="translate(0,0)"/>
<path d="" fill="#000000" transform="translate(0,0)"/>
<path d="" fill="#000000" transform="translate(0,0)"/>
<path d="" fill="#000000" transform="translate(0,0)"/>
<path d="" fill="#000000" transform="translate(0,0)"/>
<path d="" fill="#000000" transform="translate(0,0)"/>
<path d="" fill="#000000" transform="translate(0,0)"/>
<path d="" fill="#000000" transform="translate(0,0)"/>
<path d="" fill="#000000" transform="translate(0,0)"/>
<path d="" fill="#000000" transform="translate(0,0)"/>
<path d="" fill="#000000" transform="translate(0,0)"/>
<path d="" fill="#000000" transform="translate(0,0)"/>
<path d="" fill="#000000" transform="translate(0,0)"/>
<path d="" fill="#000000" transform="translate(0,0)"/>
<path d="" fill="#000000" transform="translate(0,0)"/>
<path d="" fill="#000000" transform="translate(0,0)"/>
<path d="" fill="#000000" transform="translate(0,0)"/>
<path d="" fill="#000000" transform="translate(0,0)"/>
<path d="" fill="#000000" transform="translate(0,0)"/>
<path d="" fill="#000000" transform="translate(0,0)"/>
<path d="" fill="#000000" transform="translate(0,0)"/>
<path d="" fill="#000000" transform="translate(0,0)"/>
<path d="" fill="#000000" transform="translate(0,0)"/>
<path d="" fill="#000000" transform="translate(0,0)"/>
<path d="" fill="#000000" transform="translate(0,0)"/>
<path d="" fill="#000000" transform="translate(0,0)"/>
<path d="" fill="#000000" transform="translate(0,0)"/>
<path d="" fill="#000000" transform="translate(0,0)"/>
<path d="" fill="#000000" transform="translate(0,0)"/>
<path d="" fill="#000000" transform="translate(0,0)"/>
<path d="" fill="#000000" transform="translate(0,0)"/>
<path d="" fill="#000000" transform="translate(0,0)"/>
<path d="" fill="#000000" transform="translate(0,0)"/>
<path d="" fill="#000000" transform="translate(0,0)"/>
<path d="" fill="#000000" transform="translate(0,0)"/>
<path d="" fill="#000000" transform="translate(0,0)"/>
<path d="" fill="#000000" transform="translate(0,0)"/>
<path d="" fill="#000000" transform="translate(0,0)"/>
<path d="" fill="#000000" transform="translate(0,0)"/>
<path d="" fill="#000000" transform="translate(0,0)"/>
<path d="" fill="#000000" transform="translate(0,0)"/>
<path d="" fill="#000000" transform="translate(0,0)"/>
<path d="" fill="#000000" transform="translate(0,0)"/>
<path d="" fill="#000000" transform="translate(0,0)"/>
<path d="" fill="#000000" transform="translate(0,0)"/>
<path d="" fill="#000000" transform="translate(0,0)"/>
<path d="" fill="#000000" transform="translate(0,0)"/>
</svg>
