<?xml version="1.0" encoding="UTF-8"?>
<svg version="1.1" xmlns="http://www.w3.org/2000/svg" width="672" height="1759">
<path d="M0 0 C1.24330078 1.13695312 1.24330078 1.13695312 2.51171875 2.296875 C4.57529213 4.16602907 6.68014613 5.96073362 8.8125 7.75 C26.55905898 23.28714802 41.05612098 44.19306367 52.875 64.4375 C53.25092285 65.07574707 53.6268457 65.71399414 54.01416016 66.37158203 C66.6545206 87.97350789 75.97082016 110.72832252 83.875 134.4375 C84.23190918 135.50162109 84.58881836 136.56574219 84.95654297 137.66210938 C94.85946108 167.52436127 101.25867918 198.20061308 105.58074951 229.32757568 C105.85304532 231.28007386 106.13531545 233.23117401 106.41845703 235.18212891 C111.91255252 274.56830101 111.49399468 318.10453721 105.875 357.4375 C105.69807617 358.73526367 105.52115234 360.03302734 105.33886719 361.37011719 C94.65574622 439.19844582 67.79753315 514.34763762 28.64746094 582.35449219 C26.80038947 585.56727711 24.96604584 588.78711396 23.1328125 592.0078125 C16.66603886 603.3354388 10.04768661 614.51877992 3.015625 625.50390625 C-9.03634497 644.35154735 -20.51386343 663.58353071 -32.08996582 682.72674561 C-33.11604718 684.42270235 -34.14346703 686.11784906 -35.17089844 687.81298828 C-42.68813414 700.22172616 -50.14790928 712.6447514 -57.01269531 725.4296875 C-57.82245097 726.89137111 -58.67108905 728.33171611 -59.54199219 729.7578125 C-60.01024414 730.53898437 -60.47849609 731.32015625 -60.9609375 732.125 C-61.61521729 733.18267578 -61.61521729 733.18267578 -62.28271484 734.26171875 C-63.37091898 737.07275505 -63.04526137 738.59837719 -62.125 741.4375 C-59.94078306 743.91793816 -59.94078306 743.91793816 -57.25 746.25 C-52.80759574 750.53965684 -50.32278221 753.34877377 -49.125 759.4375 C-49.75 763.3125 -49.75 763.3125 -51.125 766.4375 C-52.115 767.0975 -53.105 767.7575 -54.125 768.4375 C-53.91875 769.345 -53.7125 770.2525 -53.5 771.1875 C-53.09230538 774.72085336 -53.28074632 775.5345081 -55.125 778.4375 C-56.9296875 780.0078125 -56.9296875 780.0078125 -59 781.5625 C-63.68594316 785.54385388 -65.44827176 789.60845523 -67.125 795.4375 C-67.36089844 796.2315625 -67.59679687 797.025625 -67.83984375 797.84375 C-70.66747006 809.22818011 -68.74751647 820.2466889 -63.125 830.4375 C-60.73304452 834.05311789 -58.04755913 837.23987648 -55.125 840.4375 C-54.30644531 841.34886719 -53.48789062 842.26023437 -52.64453125 843.19921875 C-44.54029182 851.89691708 -35.05957507 858.69464732 -25.49609375 865.69042969 C31.56586853 907.73484918 31.56586853 907.73484918 36.875 938.4375 C38.64150525 955.61080953 36.02214085 972.44949757 33.00976562 989.30493164 C29.69508245 1008.24247346 28.55896655 1026.42873792 38.875 1043.4375 C44.47424528 1051.3070543 52.17044301 1056.79919581 59.875 1062.4375 C67.56877283 1068.09104063 75.00017152 1073.79532223 81.875 1080.4375 C82.58527344 1081.12199219 83.29554688 1081.80648438 84.02734375 1082.51171875 C93.64081644 1092.4942307 98.1875 1104.17228527 98.1875 1117.95703125 C97.99890364 1127.57544565 94.95491971 1136.26927506 91.8984375 1145.29296875 C91.54587891 1146.33646484 91.19332031 1147.37996094 90.83007812 1148.45507812 C90.12951019 1150.51117535 89.41791296 1152.56356023 88.69335938 1154.61132812 C84.48270956 1166.78894927 81.63897248 1179.69669051 85.73046875 1192.234375 C91.91486301 1204.13880627 106.11922611 1210.2118247 117.3125 1216.375 C149.33715367 1234.02331239 149.33715367 1234.02331239 154.984375 1247.953125 C159.23504994 1264.58295856 154.31964413 1281.96285386 150.60595703 1298.22460938 C145.22754131 1320.26756241 145.22754131 1320.26756241 151.10546875 1341.44921875 C161.91684398 1355.15103877 179.8939029 1363.42498188 194.60848999 1372.26135254 C207.50409966 1380.01571241 220.19682023 1388.02750328 232.375 1396.875 C233.14658447 1397.43018311 233.91816895 1397.98536621 234.71313477 1398.55737305 C239.47145564 1402.08572386 243.175539 1405.80732018 246.875 1410.4375 C246.1875 1412.875 246.1875 1412.875 244.875 1415.4375 C242.75390625 1416.4296875 242.75390625 1416.4296875 239.875 1416.4375 C237.16595937 1414.98788732 234.87359998 1413.06386732 232.5 1411.125 C231.05834044 1409.99828761 229.61428047 1408.87464061 228.16796875 1407.75390625 C227.44399902 1407.18945801 226.7200293 1406.62500977 225.97412109 1406.04345703 C211.51199717 1394.97904075 195.30038767 1386.07640291 179.70703125 1376.74609375 C169.71012233 1370.74473396 159.94270709 1364.79924863 150.875 1357.4375 C150.19695312 1356.93347656 149.51890625 1356.42945313 148.8203125 1355.91015625 C141.83443297 1350.49834829 136.872473 1341.97229536 135.30737305 1333.2878418 C133.74452297 1319.37044569 136.7381649 1305.67043557 139.875 1292.1875 C140.43150561 1289.73161654 140.98397266 1287.27485058 141.53588867 1284.81793213 C141.87616677 1283.3100679 142.21984356 1281.80296483 142.56762695 1280.29681396 C145.416471 1267.90682981 147.28282257 1256.09001611 140.3125 1244.9375 C131.14811836 1235.53813421 117.96551303 1229.32206548 106.5390625 1223.04296875 C97.03672461 1217.81861092 88.30371131 1212.50295799 80.875 1204.4375 C80.194375 1203.715625 79.51375 1202.99375 78.8125 1202.25 C71.41032887 1191.50491288 71.39759531 1179.3671187 73.27050781 1166.77929688 C75.40407143 1155.2264133 79.14168969 1144.2572026 83.421875 1133.34375 C86.89779998 1124.25901874 87.72718751 1112.35116054 84.375 1103.0625 C78.1780427 1090.12689332 66.60028167 1081.20771831 55.13183594 1073.17236328 C49.47593316 1069.2009024 44.0999185 1064.96465514 38.875 1060.4375 C38.15699219 1059.82777344 37.43898438 1059.21804688 36.69921875 1058.58984375 C26.13077645 1048.92433633 19.55545965 1034.68462387 18.875 1020.4375 C18.39344459 1007.70637878 19.55667794 995.36936833 21.8984375 982.8671875 C25.8016385 961.85368441 29.14779621 939.71420999 16.875 920.9375 C4.4011189 903.53129092 -12.30794087 890.37399122 -29.234375 877.56640625 C-39.09177102 870.10646691 -48.88550894 862.6581348 -58.125 854.4375 C-58.79273438 853.85355469 -59.46046875 853.26960938 -60.1484375 852.66796875 C-71.55610044 842.06039077 -80.06820639 827.05883095 -81.125 811.4375 C-81.11003505 797.95407834 -77.89976784 787.9699527 -71.125 776.4375 C-71.99511719 776.39882812 -71.99511719 776.39882812 -72.8828125 776.359375 C-78.32601925 775.96415867 -81.89424408 775.1645945 -86.125 771.4375 C-89.0955191 767.31710253 -89.62811213 763.98174952 -88.91796875 759.0859375 C-87.52232169 754.42461381 -85.0531963 750.34415561 -82.62109375 746.16015625 C-80.96447305 743.66313787 -80.96447305 743.66313787 -81.125 741.4375 C-82.6757907 739.86885918 -82.6757907 739.86885918 -84.6875 738.25 C-89.91840158 733.79268245 -94.73204811 729.11015598 -99.1875 723.875 C-102.63894635 719.86005221 -106.36462333 716.15909978 -110.125 712.4375 C-114.38467702 708.21717719 -118.5519354 703.9933175 -122.4296875 699.4140625 C-124.5612317 696.92889806 -126.78183599 694.53309854 -129 692.125 C-133.05021292 687.68499216 -136.88034122 683.11815719 -140.65234375 678.44140625 C-143.53383067 674.9408321 -146.51229396 671.5347871 -149.5 668.125 C-154.66323311 662.21347223 -159.58276947 656.15851541 -164.38671875 649.953125 C-166.23646826 647.56489138 -168.11396732 645.20331407 -170.01953125 642.859375 C-197.92659334 608.52601201 -220.26453281 570.33982484 -241.125 531.4375 C-241.82761963 530.12918213 -241.82761963 530.12918213 -242.54443359 528.79443359 C-279.85415656 459.03809023 -308.29652725 385.64679444 -308.38110352 114.51025391 C-297.71629885 80.34156009 -283.13622219 47.17900434 -260.125 19.4375 C-259.6520752 18.86451172 -259.17915039 18.29152344 -258.69189453 17.70117188 C-227.98013684 -19.35681625 -186.41071933 -44.33205932 -138.1875 -50.25 C-87.95280803 -54.22243034 -37.01795707 -33.21550831 0 0 Z " fill="#FEB458" transform="translate(347.125,330.5625)"/>
<path d="M0 0 C0.763125 0.5775 1.52625 1.155 2.3125 1.75 C3.055 2.265625 3.7975 2.78125 4.5625 3.3125 C7.35633305 7.20391032 7.7083042 11.02812528 7.3125 15.75 C5.61237534 20.76089373 2.76492749 24.47753398 -1.0625 28.0625 C-10.10256351 36.65251705 -14.32086238 49.33061492 -18.6875 60.75 C-19.15941772 61.93275513 -19.15941772 61.93275513 -19.64086914 63.1394043 C-22.81440237 71.37664109 -24.76877998 79.85793106 -26.75 88.4375 C-32.30315619 112.40778725 -32.30315619 112.40778725 -37.6875 116.75 C-41.73344 118.77297 -46.30696359 118.42772012 -50.6875 117.75 C-53.13981878 116.6425012 -54.18014335 115.64992706 -55.734375 113.45703125 C-58.0379919 106.9143816 -57.1415024 99.56862707 -56.6875 92.75 C-56.63795166 91.81172363 -56.58840332 90.87344727 -56.53735352 89.90673828 C-56.0700981 82.65573564 -54.75522845 75.97551538 -52.75 69 C-52.44497559 67.93015869 -52.13995117 66.86031738 -51.82568359 65.75805664 C-45.04713847 42.84563405 -35.84258762 20.70822596 -18.6875 3.75 C-17.87152344 2.88375 -17.87152344 2.88375 -17.0390625 2 C-12.57913453 -2.12478887 -5.28424376 -2.45778779 0 0 Z " fill="#FFFDFC" transform="translate(164.6875,382.25)"/>
</svg>
