<?xml version="1.0" encoding="UTF-8"?>
<svg version="1.1" xmlns="http://www.w3.org/2000/svg" width="1044" height="1880">
<path d="M0 0 C1.04075684 0.1222998 1.04075684 0.1222998 2.10253906 0.24707031 C8.22773695 0.99715968 13.81581707 2.19055544 19.64135742 4.19458008 C21.87567475 4.95754591 24.12014568 5.66770087 26.375 6.3671875 C45.13421971 12.389116 65.3854227 21.2452291 80.1953125 34.51953125 C82.74586574 36.61186822 85.52727176 38.21126657 88.3984375 39.82421875 C90 41 90 41 91 44 C92.88316159 45.10836423 92.88316159 45.10836423 95 46 C95.99 46.66 96.98 47.32 98 48 C98 48.66 98 49.32 98 50 C98.99 50.33 99.98 50.66 101 51 C102.6875 52.4375 102.6875 52.4375 104 54 C104 54.66 104 55.32 104 56 C104.99 56.33 105.98 56.66 107 57 C107 57.66 107 58.32 107 59 C107.99 59.33 108.98 59.66 110 60 C110 60.66 110 61.32 110 62 C110.66 62 111.32 62 112 62 C113.5078125 63.4609375 113.5078125 63.4609375 115.125 65.375 C115.93324219 66.31472656 115.93324219 66.31472656 116.7578125 67.2734375 C118 69 118 69 118 71 C118.66 71 119.32 71 120 71 C121.2890625 72.4609375 121.2890625 72.4609375 122.625 74.375 C123.07101562 75.00148438 123.51703125 75.62796875 123.9765625 76.2734375 C125 78 125 78 125 80 C125.66 80 126.32 80 127 80 C128.69580078 82.15551758 128.69580078 82.15551758 130.6953125 85.14453125 C131.41074219 86.21380859 132.12617187 87.28308594 132.86328125 88.38476562 C133.23404785 88.94719971 133.60481445 89.50963379 133.98681641 90.08911133 C135.11772688 91.80148735 136.26299346 93.50356014 137.41015625 95.20507812 C138.12300781 96.27822266 138.83585937 97.35136719 139.5703125 98.45703125 C140.55668701 99.9416687 140.55668701 99.9416687 141.56298828 101.45629883 C143 104 143 104 143 107 C143.66 107 144.32 107 145 107 C148 112.625 148 112.625 148 116 C148.66 116 149.32 116 150 116 C151.17374173 118.43431639 152.33915763 120.87204182 153.5 123.3125 C153.83386719 124.00279297 154.16773438 124.69308594 154.51171875 125.40429688 C157 130.66015625 157 130.66015625 157 134 C157.66 134 158.32 134 159 134 C159.27263672 134.85271484 159.27263672 134.85271484 159.55078125 135.72265625 C160.78615962 139.5174852 162.04976916 143.23299855 163.6875 146.875 C165 150 165 150 165 153 C165.66 153.33 166.32 153.66 167 154 C167.86621094 155.99926758 167.86621094 155.99926758 168.734375 158.64453125 C169.05833252 159.62180176 169.38229004 160.59907227 169.71606445 161.60595703 C170.05726318 162.66411621 170.39846191 163.72227539 170.75 164.8125 C171.28016724 166.43454346 171.28016724 166.43454346 171.82104492 168.08935547 C176.53784975 182.60931867 181.04756401 197.0052039 184 212 C184.49804669 214.25043318 184.99809248 216.50042474 185.5 218.75 C189.94001068 239.56255007 192.93055211 260.75053545 194 282 C194.159489 284.06306745 194.32597839 286.12560754 194.5 288.1875 C196.56300954 314.90838548 196.45007278 341.30994109 194 368 C193.9160498 368.97340332 193.83209961 369.94680664 193.74560547 370.94970703 C193.06292461 378.79318903 191.94835692 386.50341516 190.5625 394.25 C190.44068359 394.93707031 190.31886719 395.62414062 190.19335938 396.33203125 C189.79826991 398.55517715 189.3991292 400.77757606 189 403 C188.85401367 403.82330811 188.70802734 404.64661621 188.55761719 405.49487305 C187.19229859 413.1239762 185.67939889 420.71985929 184.125 428.3125 C183.88136719 429.52873047 183.63773438 430.74496094 183.38671875 431.99804688 C181.65067676 440.46687345 179.44092919 448.71031891 177 457 C175.98196682 460.66181236 174.99160648 464.33095489 174 468 C170.55461165 480.66747573 170.55461165 480.66747573 168.8125 486.875 C168.53019531 487.88304687 168.24789063 488.89109375 167.95703125 489.9296875 C167.02969246 492.90474174 165.9556152 495.79961894 164.84545898 498.71044922 C163.14853663 503.305811 161.65751556 507.97283843 160.125 512.625 C156.22190689 524.38862507 152.31668373 536.09526244 147.4609375 547.5078125 C145.15343627 553.02360421 142.96393743 558.58660803 140.76635742 564.14697266 C140.43740479 564.97503418 140.10845215 565.8030957 139.76953125 566.65625 C139.47667236 567.39681641 139.18381348 568.13738281 138.88208008 568.90039062 C138 571 138 571 136.9284668 573.09960938 C135.82340985 575.36144563 135.41224406 577.52653564 135 580 C134.34 580 133.68 580 133 580 C132.64035156 581.19238281 132.28070312 582.38476562 131.91015625 583.61328125 C129.65374681 590.38250956 126.49677425 596.75490063 123.4375 603.1875 C122.54855771 605.06141454 121.66120058 606.93602018 120.77784729 608.81257629 C119.97984766 610.50724199 119.17648844 612.19938091 118.37280273 613.89135742 C117.05004405 616.88667778 115.98052691 619.8778499 115 623 C114.34 623 113.68 623 113 623 C112.78730469 623.77214844 112.57460938 624.54429687 112.35546875 625.33984375 C110.49478047 630.36423832 107.91611857 634.88900269 105.3125 639.5625 C104.21324533 641.554524 103.11428493 643.54671042 102.015625 645.5390625 C101.48904297 646.49071289 100.96246094 647.44236328 100.41992188 648.42285156 C98.77248061 651.41294612 97.16315093 654.42213234 95.5625 657.4375 C85.47873919 676.19572492 74.67079911 694.57145204 64 713 C65.18142578 713.19722656 65.18142578 713.19722656 66.38671875 713.3984375 C69 714 69 714 70.8125 715.625 C72.43795615 718.87591229 72.26099961 721.41125541 72 725 C71.67 725.99 71.34 726.98 71 728 C70.9071875 729.8253125 70.9071875 729.8253125 70.8125 731.6875 C70.20993795 736.87144651 67.54029106 740.29801296 64 744 C59.875 747 59.875 747 57 747 C56.62875 747.8971875 56.62875 747.8971875 56.25 748.8125 C54.30181393 752.22182562 51.95388443 753.557956 48.4375 755.1875 C43.60291287 756.33022059 38.94014237 756.13065932 34 756 C32.34624358 766.499034 31.62997553 776.69415961 31.6875 787.3125 C31.68965515 788.03433472 31.6918103 788.75616943 31.69403076 789.49987793 C31.74698554 800.58365021 32.28072978 811.21898031 35 822 C35.19335938 822.80195801 35.38671875 823.60391602 35.5859375 824.43017578 C39.6843994 841.09915162 46.29036539 856.4336334 53.79125977 871.82421875 C75.98265446 917.4429414 79.56630833 960.67869062 63.11102295 1008.58825684 C60.67023152 1015.44798025 58.09626408 1022.2585903 55.53173828 1029.07275391 C51.98311524 1038.52677391 48.57952492 1047.9876558 45.65625 1057.65625 C45.41571899 1058.44713013 45.17518799 1059.23801025 44.92736816 1060.05285645 C40.08533185 1076.46837173 37.52587582 1094.38453644 46 1110 C52.93002269 1122.34675472 62.05569123 1132.59183012 71.5625 1143 C91.7268281 1165.27921242 108.75104098 1190.12998585 108.1875 1221.265625 C106.62488529 1252.38770129 92.11999799 1282.85189088 81.10430908 1311.59484863 C71.78732709 1335.58080914 71.78732709 1335.58080914 64.125 1360.125 C63.84398437 1361.11757812 63.56296875 1362.11015625 63.2734375 1363.1328125 C57.46014639 1384.19228219 56.53775799 1403.8525372 66.984375 1423.6484375 C70.70482146 1429.83476127 75.30317317 1435.11832916 80.22265625 1440.375 C89.69927062 1450.5368722 97.53058856 1461.75528074 102 1475 C102.31710937 1475.84691406 102.63421875 1476.69382812 102.9609375 1477.56640625 C105.15622283 1484.48457609 105.33950115 1491.42633335 105.4375 1498.625 C105.45981689 1499.57149414 105.48213379 1500.51798828 105.50512695 1501.49316406 C105.45727061 1516.96757756 100.34018169 1531.75233729 95.42694092 1546.25408936 C90.55498403 1560.67319668 85.86014606 1575.02629416 83 1590 C82.84354004 1590.78938965 82.68708008 1591.5787793 82.52587891 1592.39208984 C78.7733836 1611.41985817 78.7733836 1611.41985817 83 1630 C85.2504197 1632.91790525 85.2504197 1632.91790525 88 1635 C88.928125 1635.763125 89.85625 1636.52625 90.8125 1637.3125 C91.534375 1637.869375 92.25625 1638.42625 93 1639 C92.67 1640.98 92.34 1642.96 92 1645 C87.80043621 1645.62993457 85.39324864 1644.93124857 82 1642.5625 C75.56250956 1637.33358056 71.81739248 1631.06261389 70 1623 C66.99125676 1593.16385463 77.9203504 1563.29304479 87.53564453 1535.5390625 C95.15253158 1513.33246524 98.62161665 1490.83804384 88 1469 C82.75355976 1459.20573166 75.39918606 1450.71509588 67.796875 1442.66796875 C53.8843938 1427.90649755 47.34517692 1408.93262666 47.76171875 1388.78515625 C49.71862734 1357.69918207 63.15191268 1327.94917005 74.13330078 1299.14892578 C97.05971622 1244.33438437 97.05971622 1244.33438437 90.49609375 1187.109375 C83.81518782 1173.22425459 72.81616641 1160.88192324 62.40625 1149.6484375 C59.18129783 1146.09889599 56.15601661 1142.40930978 53.15234375 1138.671875 C51.77034623 1136.95629187 50.36816596 1135.25666584 48.94140625 1133.578125 C34.70640497 1116.59601821 28.43484404 1099.06488154 30 1077 C32.25818863 1057.28287081 40.18075889 1038.49008048 47 1020 C53.4223987 1002.74497388 53.4223987 1002.74497388 58.9375 985.1875 C59.12497803 984.52492188 59.31245605 983.86234375 59.50561523 983.1796875 C65.32734168 961.42925984 65.32066163 936.64059749 59 915 C58.62125732 913.70231689 58.62125732 913.70231689 58.23486328 912.37841797 C54.22810931 899.1340678 48.71571299 886.70689891 42.79711914 874.21972656 C38.09516306 864.29818046 33.78579481 854.30629152 30 844 C29.75314453 843.33742188 29.50628906 842.67484375 29.25195312 841.9921875 C22.742069 824.17566252 20.63059509 805.73819364 20.625 786.875 C20.62309662 786.18657013 20.62119324 785.49814026 20.61923218 784.78884888 C20.62218992 775.36224869 21.42525734 766.29442473 23 757 C22.12754639 757.10546143 21.25509277 757.21092285 20.35620117 757.31958008 C10.69357831 758.48758944 10.69357831 758.48758944 6 755 C2.80527913 751.63259152 2 750.76146368 2 746 C1.401875 745.835 0.80375 745.67 0.1875 745.5 C-2.57981761 743.60241078 -3.53885922 741.49752049 -4.59765625 738.35546875 C-5.59675096 732.50639969 -3.46249837 726.27678223 -1 721 C-1.53512207 720.84072021 -2.07024414 720.68144043 -2.62158203 720.51733398 C-8.72020633 718.6058347 -14.23836345 716.05739661 -19.875 713.0625 C-21.22343994 712.35311279 -21.22343994 712.35311279 -22.59912109 711.62939453 C-29.96796772 707.68911744 -37.04722796 703.35807529 -44.04638672 698.79711914 C-44.78646973 698.3149292 -45.52655273 697.83273926 -46.2890625 697.3359375 C-46.93568848 696.90845215 -47.58231445 696.4809668 -48.24853516 696.04052734 C-50.13100051 694.83818034 -50.13100051 694.83818034 -53 694 C-54.03306275 693.03419394 -55.03200677 692.03101363 -56 691 C-57.61028865 689.62454511 -59.22071796 688.2492544 -60.83203125 686.875 C-63.47509985 684.58910283 -66.08646231 682.27114129 -68.6875 679.9375 C-69.59886719 679.12152344 -70.51023437 678.30554688 -71.44921875 677.46484375 C-74 675 -74 675 -76.14453125 672.31640625 C-77.96410894 669.80537139 -77.96410894 669.80537139 -81 668 C-81 667.34 -81 666.68 -81 666 C-81.78375 665.71125 -82.5675 665.4225 -83.375 665.125 C-86.63329917 663.72858607 -88.52968531 661.47031469 -91 659 C-91.7115625 658.319375 -91.7115625 658.319375 -92.4375 657.625 C-94 656 -94 656 -95.8125 653.6875 C-97.55182805 651.55061125 -99.2769893 649.71587503 -101.25 647.8125 C-104 645 -104 645 -104 643 C-104.99 642.67 -105.98 642.34 -107 642 C-107 641.34 -107 640.68 -107 640 C-107.66 640 -108.32 640 -109 640 C-110.625 638.625 -110.625 638.625 -112 637 C-112 636.34 -112 635.68 -112 635 C-112.66 635 -113.32 635 -114 635 C-115.625 633.6875 -115.625 633.6875 -117 632 C-117 631.01 -117 630.02 -117 629 C-117.66 629 -118.32 629 -119 629 C-120.5078125 627.5390625 -120.5078125 627.5390625 -122.125 625.625 C-122.93324219 624.68527344 -122.93324219 624.68527344 -123.7578125 623.7265625 C-125 622 -125 622 -125 620 C-125.66 620 -126.32 620 -127 620 C-130 616.53846154 -130 616.53846154 -130 614 C-130.66 614 -131.32 614 -132 614 C-135 610.53846154 -135 610.53846154 -135 608 C-135.66 608 -136.32 608 -137 608 C-140 604.53846154 -140 604.53846154 -140 602 C-140.66 602 -141.32 602 -142 602 C-143.2890625 600.5390625 -143.2890625 600.5390625 -144.625 598.625 C-145.29402344 597.68527344 -145.29402344 597.68527344 -145.9765625 596.7265625 C-147 595 -147 595 -147 593 C-147.66 593 -148.32 593 -149 593 C-149 592.34 -149 591.68 -149 591 C-149.66 591 -150.32 591 -151 591 C-151 590.01 -151 589.02 -151 588 C-151.66 588 -152.32 588 -153 588 C-156 583.61538462 -156 583.61538462 -156 581 C-157.32 580.67 -158.64 580.34 -160 580 C-160 578.68 -160 577.36 -160 576 C-160.66 576 -161.32 576 -162 576 C-162 575.01 -162 574.02 -162 573 C-162.66 573 -163.32 573 -164 573 C-164 572.01 -164 571.02 -164 570 C-164.66 570 -165.32 570 -166 570 C-167.47265625 568.171875 -167.47265625 568.171875 -169.0625 565.75 C-169.58972656 564.96109375 -170.11695313 564.1721875 -170.66015625 563.359375 C-171.89430764 561.18611716 -172.54673055 559.43982072 -173 557 C-173.66 557 -174.32 557 -175 557 C-176.5078125 555.13671875 -176.5078125 555.13671875 -178.125 552.6875 C-178.93324219 551.48673828 -178.93324219 551.48673828 -179.7578125 550.26171875 C-181 548 -181 548 -181 545 C-181.66 545 -182.32 545 -183 545 C-183 544.01 -183 543.02 -183 542 C-183.66 542 -184.32 542 -185 542 C-185.39832031 541.25234375 -185.79664063 540.5046875 -186.20703125 539.734375 C-186.73683594 538.74953125 -187.26664062 537.7646875 -187.8125 536.75 C-188.33457031 535.77546875 -188.85664063 534.8009375 -189.39453125 533.796875 C-190.89761004 531.02472107 -190.89761004 531.02472107 -192.69921875 528.828125 C-194 527 -194 527 -194 524 C-194.66 524 -195.32 524 -196 524 C-196.84114171 522.56705502 -197.67265687 521.12845595 -198.5 519.6875 C-199.19609375 518.48673828 -199.19609375 518.48673828 -199.90625 517.26171875 C-201 515 -201 515 -201 512 C-201.66 512 -202.32 512 -203 512 C-203.49628906 510.93523438 -203.99257813 509.87046875 -204.50390625 508.7734375 C-205.1898225 507.30715987 -205.87604305 505.84102457 -206.5625 504.375 C-206.92166504 503.60607422 -207.28083008 502.83714844 -207.65087891 502.04492188 C-209.67533065 497.73439692 -211.76803626 493.47519663 -213.96630859 489.25097656 C-216.94947648 483.50264769 -219.00622015 478.40435903 -220 472 C-220.66 472 -221.32 472 -222 472 C-222.24234375 471.24976563 -222.4846875 470.49953125 -222.734375 469.7265625 C-223.06953125 468.70304687 -223.4046875 467.67953125 -223.75 466.625 C-224.07484375 465.62726563 -224.3996875 464.62953125 -224.734375 463.6015625 C-225.70977702 460.82588143 -226.75119242 458.1339531 -227.86767578 455.41552734 C-229.93737767 450.25976048 -231.70166799 445.0433473 -233.3828125 439.75 C-233.68315399 438.81124023 -233.98349548 437.87248047 -234.29293823 436.90527344 C-234.92161315 434.93614432 -235.54839258 432.9664091 -236.17333984 430.99609375 C-237.12320971 428.00563633 -238.08274445 425.01839641 -239.04296875 422.03125 C-239.65683843 420.10435403 -240.27013885 418.17727659 -240.8828125 416.25 C-241.30785568 414.93080566 -241.30785568 414.93080566 -241.7414856 413.58496094 C-243.57203993 407.77685727 -244.88620129 401.98325965 -246 396 C-246.47545013 393.87416537 -246.9542588 391.74907713 -247.4375 389.625 C-250.86930404 373.59258213 -252.71232441 357.33094567 -254 341 C-254.05929687 340.2560498 -254.11859375 339.51209961 -254.1796875 338.74560547 C-255.6379008 319.58485631 -255.67882984 300.14251957 -254 281 C-253.94086426 280.278125 -253.88172852 279.55625 -253.82080078 278.8125 C-252.85158688 267.13260937 -251.26649057 255.59091421 -249.40893555 244.02001953 C-248.66374055 239.37646707 -247.94245087 234.75330425 -247.4609375 230.07421875 C-247.11810045 226.7900251 -246.54885535 223.69519527 -245.6875 220.5 C-244.3688395 215.45159877 -243.12786363 210.39230757 -241.9375 205.3125 C-241.76299316 204.57265869 -241.58848633 203.83281738 -241.40869141 203.07055664 C-240.57798782 199.53430313 -239.78542658 195.9975724 -239.0625 192.4375 C-237.84477807 186.86615278 -236.01376847 181.45773465 -234.27734375 176.03125 C-233.18666271 172.62056778 -232.18470401 169.18924584 -231.1875 165.75 C-220.79130436 131.96236417 -202.27451673 94.64547573 -176.6875 69.75 C-174.76862148 68.16523212 -174.76862148 68.16523212 -175 66 C-174.01 65.34 -173.02 64.68 -172 64 C-171.4225 63.4225 -170.845 62.845 -170.25 62.25 C-168.33991452 60.33991452 -166.40201258 58.5330982 -164.375 56.75 C-163.78460938 56.22921875 -163.19421875 55.7084375 -162.5859375 55.171875 C-161 54 -161 54 -159 54 C-159 53.34 -159 52.68 -159 52 C-156.55400767 49.11722332 -154.78611227 47.54087318 -151 47 C-151 46.34 -151 45.68 -151 45 C-147.53846154 42 -147.53846154 42 -145 42 C-145 41.34 -145 40.68 -145 40 C-144.01 40 -143.02 40 -142 40 C-142 39.34 -142 38.68 -142 38 C-140.39526367 36.67138672 -140.39526367 36.67138672 -138.16796875 35.1796875 C-137.36939453 34.64472656 -136.57082031 34.10976562 -135.74804688 33.55859375 C-134.90306641 33.00300781 -134.05808594 32.44742188 -133.1875 31.875 C-132.35412109 31.31167969 -131.52074219 30.74835938 -130.66210938 30.16796875 C-129.85966797 29.63558594 -129.05722656 29.10320312 -128.23046875 28.5546875 C-127.12288208 27.81968018 -127.12288208 27.81968018 -125.99291992 27.06982422 C-124 26 -124 26 -121 26 C-121 25.34 -121 24.68 -121 24 C-120.01 24 -119.02 24 -118 24 C-118 23.34 -118 22.68 -118 22 C-117.34773437 21.74605469 -116.69546875 21.49210937 -116.0234375 21.23046875 C-112.1172755 19.69220141 -108.30692821 18.15625436 -104.5625 16.25 C-102 15 -102 15 -99 15 C-99 14.34 -99 13.68 -99 13 C-94.64687007 11.60370578 -90.29094754 10.21660746 -85.93237305 8.83740234 C-84.45471351 8.36847243 -82.97780134 7.89717983 -81.50170898 7.42333984 C-73.06779922 4.7178537 -64.80253419 2.21623961 -56 1 C-55.25016846 0.89558594 -54.50033691 0.79117188 -53.7277832 0.68359375 C-49.24583755 0.10456477 -44.74807566 -0.34097332 -40.25048828 -0.77978516 C-38.18545255 -0.98185309 -36.12192299 -1.19916178 -34.05859375 -1.41796875 C-22.56554149 -2.41992715 -11.42480998 -1.35548593 0 0 Z " fill="#9C3BEA" transform="translate(608,173)"/>
<path d="M0 0 C1.69576172 -0.03867188 1.69576172 -0.03867188 3.42578125 -0.078125 C7.78949303 0.36085918 10.31962047 1.7571537 13.26953125 4.9765625 C16.55314628 10.0427114 17.71388197 14.23216048 16.6875 20.25 C15.41193941 24.75976886 13.5157617 26.50394583 9.6875 29.125 C8.6975 29.81722656 7.7075 30.50945312 6.6875 31.22265625 C4.84073804 32.47066336 2.9878262 33.70969422 1.125 34.93359375 C-21.89596093 50.3177936 -33.4166392 75.23475907 -43.38232422 100.1784668 C-49.66245564 115.63148992 -49.66245564 115.63148992 -56.1875 120.3125 C-61.37451825 121.86860547 -64.86718808 122.29962067 -69.82421875 120.171875 C-73.73717057 117.73933352 -75.94812435 115.80614571 -77.01953125 111.23046875 C-77.98377383 79.98186667 -57.48560607 45.18986638 -36.7512207 23.12231445 C-27.44779043 13.546489 -14.00572719 0.19033831 0 0 Z " fill="#FDFBFE" transform="translate(497.3125,224.75)"/>
<path d="M0 0 C0.66 0 1.32 0 2 0 C1.67 0.66 1.34 1.32 1 2 C0.67 1.34 0.34 0.68 0 0 Z " fill="#FFB458" transform="translate(1042,0)"/>
<path d="" fill="#9C3BEA" transform="translate(0,0)"/>
<path d="" fill="#9C3BEA" transform="translate(0,0)"/>
<path d="" fill="#9C3BEA" transform="translate(0,0)"/>
<path d="" fill="#9C3BEA" transform="translate(0,0)"/>
<path d="" fill="#9C3BEA" transform="translate(0,0)"/>
<path d="" fill="#9C3BEA" transform="translate(0,0)"/>
<path d="" fill="#9C3BEA" transform="translate(0,0)"/>
<path d="" fill="#9C3BEA" transform="translate(0,0)"/>
<path d="" fill="#9C3BEA" transform="translate(0,0)"/>
<path d="" fill="#9C3BEA" transform="translate(0,0)"/>
<path d="" fill="#9C3BEA" transform="translate(0,0)"/>
<path d="" fill="#9C3BEA" transform="translate(0,0)"/>
<path d="" fill="#9C3BEA" transform="translate(0,0)"/>
<path d="" fill="#9C3BEA" transform="translate(0,0)"/>
<path d="" fill="#9C3BEA" transform="translate(0,0)"/>
<path d="" fill="#9C3BEA" transform="translate(0,0)"/>
<path d="" fill="#9C3BEA" transform="translate(0,0)"/>
<path d="" fill="#9C3BEA" transform="translate(0,0)"/>
<path d="" fill="#9C3BEA" transform="translate(0,0)"/>
<path d="" fill="#9C3BEA" transform="translate(0,0)"/>
<path d="" fill="#9C3BEA" transform="translate(0,0)"/>
<path d="" fill="#9C3BEA" transform="translate(0,0)"/>
<path d="" fill="#9C3BEA" transform="translate(0,0)"/>
<path d="" fill="#9C3BEA" transform="translate(0,0)"/>
<path d="" fill="#9C3BEA" transform="translate(0,0)"/>
<path d="" fill="#9C3BEA" transform="translate(0,0)"/>
<path d="" fill="#9C3BEA" transform="translate(0,0)"/>
<path d="" fill="#9C3BEA" transform="translate(0,0)"/>
<path d="" fill="#9C3BEA" transform="translate(0,0)"/>
<path d="" fill="#9C3BEA" transform="translate(0,0)"/>
<path d="" fill="#9C3BEA" transform="translate(0,0)"/>
<path d="" fill="#9C3BEA" transform="translate(0,0)"/>
<path d="" fill="#9C3BEA" transform="translate(0,0)"/>
<path d="" fill="#9C3BEA" transform="translate(0,0)"/>
<path d="" fill="#9C3BEA" transform="translate(0,0)"/>
<path d="" fill="#9C3BEA" transform="translate(0,0)"/>
<path d="" fill="#9C3BEA" transform="translate(0,0)"/>
<path d="" fill="#9C3BEA" transform="translate(0,0)"/>
<path d="" fill="#9C3BEA" transform="translate(0,0)"/>
<path d="" fill="#9C3BEA" transform="translate(0,0)"/>
<path d="" fill="#9C3BEA" transform="translate(0,0)"/>
<path d="" fill="#9C3BEA" transform="translate(0,0)"/>
<path d="" fill="#9C3BEA" transform="translate(0,0)"/>
<path d="" fill="#9C3BEA" transform="translate(0,0)"/>
<path d="" fill="#9C3BEA" transform="translate(0,0)"/>
<path d="" fill="#9C3BEA" transform="translate(0,0)"/>
<path d="" fill="#9C3BEA" transform="translate(0,0)"/>
<path d="" fill="#9C3BEA" transform="translate(0,0)"/>
<path d="" fill="#9C3BEA" transform="translate(0,0)"/>
<path d="" fill="#9C3BEA" transform="translate(0,0)"/>
<path d="" fill="#9C3BEA" transform="translate(0,0)"/>
<path d="" fill="#9C3BEA" transform="translate(0,0)"/>
<path d="" fill="#9C3BEA" transform="translate(0,0)"/>
<path d="" fill="#9C3BEA" transform="translate(0,0)"/>
<path d="" fill="#9C3BEA" transform="translate(0,0)"/>
<path d="" fill="#9C3BEA" transform="translate(0,0)"/>
<path d="" fill="#9C3BEA" transform="translate(0,0)"/>
<path d="" fill="#9C3BEA" transform="translate(0,0)"/>
<path d="" fill="#9C3BEA" transform="translate(0,0)"/>
<path d="" fill="#9C3BEA" transform="translate(0,0)"/>
<path d="" fill="#9C3BEA" transform="translate(0,0)"/>
<path d="" fill="#9C3BEA" transform="translate(0,0)"/>
<path d="" fill="#9C3BEA" transform="translate(0,0)"/>
<path d="" fill="#9C3BEA" transform="translate(0,0)"/>
<path d="" fill="#9C3BEA" transform="translate(0,0)"/>
<path d="" fill="#9C3BEA" transform="translate(0,0)"/>
<path d="" fill="#9C3BEA" transform="translate(0,0)"/>
<path d="" fill="#9C3BEA" transform="translate(0,0)"/>
<path d="" fill="#9C3BEA" transform="translate(0,0)"/>
<path d="" fill="#9C3BEA" transform="translate(0,0)"/>
<path d="" fill="#9C3BEA" transform="translate(0,0)"/>
<path d="" fill="#9C3BEA" transform="translate(0,0)"/>
<path d="" fill="#9C3BEA" transform="translate(0,0)"/>
<path d="" fill="#9C3BEA" transform="translate(0,0)"/>
<path d="" fill="#9C3BEA" transform="translate(0,0)"/>
<path d="" fill="#9C3BEA" transform="translate(0,0)"/>
<path d="" fill="#9C3BEA" transform="translate(0,0)"/>
<path d="" fill="#9C3BEA" transform="translate(0,0)"/>
<path d="" fill="#9C3BEA" transform="translate(0,0)"/>
<path d="" fill="#9C3BEA" transform="translate(0,0)"/>
<path d="" fill="#9C3BEA" transform="translate(0,0)"/>
<path d="" fill="#9C3BEA" transform="translate(0,0)"/>
<path d="" fill="#9C3BEA" transform="translate(0,0)"/>
<path d="" fill="#9C3BEA" transform="translate(0,0)"/>
<path d="" fill="#9C3BEA" transform="translate(0,0)"/>
<path d="" fill="#9C3BEA" transform="translate(0,0)"/>
<path d="" fill="#9C3BEA" transform="translate(0,0)"/>
<path d="" fill="#9C3BEA" transform="translate(0,0)"/>
<path d="" fill="#9C3BEA" transform="translate(0,0)"/>
<path d="" fill="#9C3BEA" transform="translate(0,0)"/>
<path d="" fill="#9C3BEA" transform="translate(0,0)"/>
<path d="" fill="#9C3BEA" transform="translate(0,0)"/>
<path d="" fill="#9C3BEA" transform="translate(0,0)"/>
<path d="" fill="#9C3BEA" transform="translate(0,0)"/>
<path d="" fill="#9C3BEA" transform="translate(0,0)"/>
<path d="" fill="#9C3BEA" transform="translate(0,0)"/>
<path d="" fill="#9C3BEA" transform="translate(0,0)"/>
<path d="" fill="#9C3BEA" transform="translate(0,0)"/>
<path d="" fill="#9C3BEA" transform="translate(0,0)"/>
<path d="" fill="#9C3BEA" transform="translate(0,0)"/>
<path d="" fill="#9C3BEA" transform="translate(0,0)"/>
<path d="" fill="#9C3BEA" transform="translate(0,0)"/>
<path d="" fill="#9C3BEA" transform="translate(0,0)"/>
<path d="" fill="#9C3BEA" transform="translate(0,0)"/>
<path d="" fill="#9C3BEA" transform="translate(0,0)"/>
<path d="" fill="#9C3BEA" transform="translate(0,0)"/>
<path d="" fill="#9C3BEA" transform="translate(0,0)"/>
<path d="" fill="#9C3BEA" transform="translate(0,0)"/>
<path d="" fill="#9C3BEA" transform="translate(0,0)"/>
<path d="" fill="#9C3BEA" transform="translate(0,0)"/>
<path d="" fill="#9C3BEA" transform="translate(0,0)"/>
<path d="" fill="#9C3BEA" transform="translate(0,0)"/>
<path d="" fill="#9C3BEA" transform="translate(0,0)"/>
<path d="" fill="#9C3BEA" transform="translate(0,0)"/>
<path d="" fill="#9C3BEA" transform="translate(0,0)"/>
<path d="" fill="#9C3BEA" transform="translate(0,0)"/>
<path d="" fill="#9C3BEA" transform="translate(0,0)"/>
<path d="" fill="#9C3BEA" transform="translate(0,0)"/>
<path d="" fill="#9C3BEA" transform="translate(0,0)"/>
<path d="" fill="#9C3BEA" transform="translate(0,0)"/>
<path d="" fill="#9C3BEA" transform="translate(0,0)"/>
<path d="" fill="#9C3BEA" transform="translate(0,0)"/>
<path d="" fill="#9C3BEA" transform="translate(0,0)"/>
<path d="" fill="#9C3BEA" transform="translate(0,0)"/>
<path d="" fill="#9C3BEA" transform="translate(0,0)"/>
<path d="" fill="#9C3BEA" transform="translate(0,0)"/>
<path d="" fill="#9C3BEA" transform="translate(0,0)"/>
<path d="" fill="#9C3BEA" transform="translate(0,0)"/>
<path d="" fill="#9C3BEA" transform="translate(0,0)"/>
<path d="" fill="#9C3BEA" transform="translate(0,0)"/>
<path d="" fill="#9C3BEA" transform="translate(0,0)"/>
<path d="" fill="#9C3BEA" transform="translate(0,0)"/>
<path d="" fill="#9C3BEA" transform="translate(0,0)"/>
<path d="" fill="#9C3BEA" transform="translate(0,0)"/>
<path d="" fill="#9C3BEA" transform="translate(0,0)"/>
<path d="" fill="#9C3BEA" transform="translate(0,0)"/>
<path d="" fill="#9C3BEA" transform="translate(0,0)"/>
<path d="" fill="#9C3BEA" transform="translate(0,0)"/>
<path d="" fill="#9C3BEA" transform="translate(0,0)"/>
<path d="" fill="#9C3BEA" transform="translate(0,0)"/>
<path d="" fill="#9C3BEA" transform="translate(0,0)"/>
<path d="" fill="#9C3BEA" transform="translate(0,0)"/>
<path d="" fill="#9C3BEA" transform="translate(0,0)"/>
<path d="" fill="#9C3BEA" transform="translate(0,0)"/>
<path d="" fill="#9C3BEA" transform="translate(0,0)"/>
<path d="" fill="#9C3BEA" transform="translate(0,0)"/>
<path d="" fill="#9C3BEA" transform="translate(0,0)"/>
<path d="" fill="#9C3BEA" transform="translate(0,0)"/>
<path d="" fill="#9C3BEA" transform="translate(0,0)"/>
<path d="" fill="#9C3BEA" transform="translate(0,0)"/>
<path d="" fill="#9C3BEA" transform="translate(0,0)"/>
<path d="" fill="#9C3BEA" transform="translate(0,0)"/>
<path d="" fill="#9C3BEA" transform="translate(0,0)"/>
<path d="" fill="#9C3BEA" transform="translate(0,0)"/>
<path d="" fill="#9C3BEA" transform="translate(0,0)"/>
<path d="" fill="#9C3BEA" transform="translate(0,0)"/>
<path d="" fill="#9C3BEA" transform="translate(0,0)"/>
<path d="" fill="#9C3BEA" transform="translate(0,0)"/>
<path d="" fill="#9C3BEA" transform="translate(0,0)"/>
<path d="" fill="#9C3BEA" transform="translate(0,0)"/>
<path d="" fill="#9C3BEA" transform="translate(0,0)"/>
<path d="" fill="#9C3BEA" transform="translate(0,0)"/>
<path d="" fill="#9C3BEA" transform="translate(0,0)"/>
<path d="" fill="#9C3BEA" transform="translate(0,0)"/>
<path d="" fill="#9C3BEA" transform="translate(0,0)"/>
<path d="" fill="#9C3BEA" transform="translate(0,0)"/>
<path d="" fill="#9C3BEA" transform="translate(0,0)"/>
<path d="" fill="#9C3BEA" transform="translate(0,0)"/>
<path d="" fill="#9C3BEA" transform="translate(0,0)"/>
<path d="" fill="#9C3BEA" transform="translate(0,0)"/>
<path d="" fill="#9C3BEA" transform="translate(0,0)"/>
<path d="" fill="#9C3BEA" transform="translate(0,0)"/>
<path d="" fill="#9C3BEA" transform="translate(0,0)"/>
<path d="" fill="#9C3BEA" transform="translate(0,0)"/>
<path d="" fill="#9C3BEA" transform="translate(0,0)"/>
<path d="" fill="#9C3BEA" transform="translate(0,0)"/>
<path d="" fill="#9C3BEA" transform="translate(0,0)"/>
<path d="" fill="#9C3BEA" transform="translate(0,0)"/>
<path d="" fill="#9C3BEA" transform="translate(0,0)"/>
<path d="" fill="#9C3BEA" transform="translate(0,0)"/>
<path d="" fill="#9C3BEA" transform="translate(0,0)"/>
<path d="" fill="#9C3BEA" transform="translate(0,0)"/>
<path d="" fill="#9C3BEA" transform="translate(0,0)"/>
<path d="" fill="#9C3BEA" transform="translate(0,0)"/>
<path d="" fill="#9C3BEA" transform="translate(0,0)"/>
<path d="" fill="#9C3BEA" transform="translate(0,0)"/>
<path d="" fill="#9C3BEA" transform="translate(0,0)"/>
<path d="" fill="#9C3BEA" transform="translate(0,0)"/>
<path d="" fill="#9C3BEA" transform="translate(0,0)"/>
<path d="" fill="#9C3BEA" transform="translate(0,0)"/>
<path d="" fill="#9C3BEA" transform="translate(0,0)"/>
<path d="" fill="#9C3BEA" transform="translate(0,0)"/>
<path d="" fill="#9C3BEA" transform="translate(0,0)"/>
<path d="" fill="#9C3BEA" transform="translate(0,0)"/>
<path d="" fill="#9C3BEA" transform="translate(0,0)"/>
<path d="" fill="#9C3BEA" transform="translate(0,0)"/>
<path d="" fill="#9C3BEA" transform="translate(0,0)"/>
<path d="" fill="#9C3BEA" transform="translate(0,0)"/>
<path d="" fill="#9C3BEA" transform="translate(0,0)"/>
<path d="" fill="#9C3BEA" transform="translate(0,0)"/>
<path d="" fill="#9C3BEA" transform="translate(0,0)"/>
<path d="" fill="#9C3BEA" transform="translate(0,0)"/>
<path d="" fill="#9C3BEA" transform="translate(0,0)"/>
<path d="" fill="#9C3BEA" transform="translate(0,0)"/>
<path d="" fill="#9C3BEA" transform="translate(0,0)"/>
<path d="" fill="#9C3BEA" transform="translate(0,0)"/>
</svg>
