<?xml version="1.0" encoding="UTF-8"?>
<svg version="1.1" xmlns="http://www.w3.org/2000/svg" width="699" height="1466">
<path d="M0 0 C48.33329586 45.21525207 67.88663149 111.49678753 70.4375 176.1875 C73.05328595 259.00857791 51.86772832 339.39445215 -13.92480469 482.24462891 C-15.69716136 485.42948093 -17.44728831 488.62595121 -19.1953125 491.82421875 C-26.4046066 504.97419472 -33.91169058 517.85132943 -41.90478516 530.53808594 C-44.917428 535.35299024 -47.86350166 540.20844556 -50.8125 545.0625 C-51.40901367 546.04428223 -52.00552734 547.02606445 -52.62011719 548.03759766 C-54.2688535 550.75346084 -55.91595716 553.4703066 -57.5625 556.1875 C-57.96355957 556.84814453 -58.36461914 557.50878906 -58.77783203 558.18945312 C-75.94186542 586.48543149 -92.74237361 615.12016648 -108.5625 644.1875 C-109.11373535 645.19973633 -109.6649707 646.21197266 -110.23291016 647.25488281 C-112.11999976 650.72899297 -114.00070232 654.20647663 -115.875 657.6875 C-116.19645996 658.28443665 -116.51791992 658.88137329 -116.84912109 659.49639893 C-120.87891626 666.99576297 -124.7550998 674.54761189 -128.48510742 682.2019043 C-135.90170966 697.41506472 -144.11064101 712.46215706 -154.41015625 725.94921875 C-157.26577015 730.2455961 -157.73909939 734.08274948 -158.49609375 739.1015625 C-159.9031002 743.17311962 -162.22971452 744.53461944 -165.5625 747.1875 C-172.10728642 757.08514832 -175.44137467 768.85252541 -178.5625 780.1875 C-178.77567871 780.95674805 -178.98885742 781.72599609 -179.20849609 782.51855469 C-184.86146657 803.50761717 -183.12032918 818.92099087 -172.28125 837.96948242 C-169.38145478 842.93609015 -166.28259606 847.75695539 -163.125 852.5625 C-142.57422169 883.93762414 -134.38857785 913.74325474 -142.05055237 950.96697998 C-145.05405426 964.92103048 -149.19107082 978.3795389 -153.625 991.9375 C-162.97148117 1019.02224025 -162.97148117 1019.02224025 -166.0625 1047.3125 C-166.04823975 1048.23369629 -166.03397949 1049.15489258 -166.01928711 1050.10400391 C-165.42047337 1069.79491039 -157.22864523 1087.83814914 -149.84765625 1105.82421875 C-135.70370719 1140.50749024 -125.67604288 1175.65534923 -130.00488281 1213.35250854 C-130.16749976 1214.77720876 -130.32397633 1216.20262407 -130.47412109 1217.62869263 C-130.69188526 1219.6471149 -130.94495147 1221.66163183 -131.19921875 1223.67578125 C-131.41130981 1225.44755737 -131.41130981 1225.44755737 -131.62768555 1227.25512695 C-132.5625 1230.1875 -132.5625 1230.1875 -135.14770508 1232.09448242 C-135.9445874 1232.45517822 -136.74146973 1232.81587402 -137.5625 1233.1875 C-139.5625 1231.6875 -139.5625 1231.6875 -141.5625 1229.1875 C-142.06772884 1224.47203087 -141.4482319 1220.4374774 -140.56640625 1215.80078125 C-137.19208768 1195.77718506 -139.12059375 1175.59976962 -144.5625 1156.1875 C-144.98063965 1154.62515625 -144.98063965 1154.62515625 -145.40722656 1153.03125 C-150.19308757 1135.22339509 -156.62288826 1118.25148181 -163.5625 1101.1875 C-170.75756652 1083.47724809 -176.91377374 1066.39125573 -177.125 1047.0625 C-177.14723633 1045.70644653 -177.14723633 1045.70644653 -177.16992188 1044.32299805 C-176.92212116 1027.59792479 -171.29607198 1011.41163608 -166.19125366 995.66659546 C-152.99113088 954.84538331 -141.05915612 916.34015034 -161.453125 875.88671875 C-165.39555791 868.4328124 -170.03101998 861.42654068 -174.64819336 854.37890625 C-178.8349776 847.96790846 -182.79397983 841.51976828 -186.375 834.75 C-186.76494141 834.02409668 -187.15488281 833.29819336 -187.55664062 832.55029297 C-191.57716791 824.75646112 -194.14429416 816.81616834 -194.0625 808 C-194.05677979 807.24372314 -194.05105957 806.48744629 -194.04516602 805.70825195 C-193.4511188 785.88867655 -187.21490864 753.83990864 -172.5625 739.1875 C-172.21863591 736.20785402 -172.21863591 736.20785402 -173.97631836 734.69506836 C-174.96063843 733.90048218 -174.96063843 733.90048218 -175.96484375 733.08984375 C-180.95840247 728.90308056 -185.53041403 724.36658718 -190.125 719.75 C-190.93646484 718.94240234 -191.74792969 718.13480469 -192.58398438 717.30273438 C-197.45063599 712.42822699 -202.11710722 707.44901496 -206.5625 702.1875 C-207.048396 701.61362549 -207.53429199 701.03975098 -208.03491211 700.44848633 C-253.00528711 646.69052899 -277.41784364 577.25110547 -294.5625 510.1875 C-294.82873169 509.15030823 -294.82873169 509.15030823 -295.1003418 508.09216309 C-316.39918422 424.84240786 -326.71717259 337.21847917 -267.5 73.5 C-261.69014656 63.69562187 -255.42397047 54.28502204 -248.5625 45.1875 C-248.10278809 44.5776123 -247.64307617 43.96772461 -247.16943359 43.33935547 C-244.04412326 39.22512112 -240.83525276 35.1852369 -237.5625 31.1875 C-236.85939697 30.32777588 -236.85939697 30.32777588 -236.14208984 29.45068359 C-225.10459491 16.05254677 -213.24575836 3.81075891 -199.27294922 -6.53759766 C-197.62318028 -7.76727128 -196.00049988 -9.02649058 -194.37890625 -10.29296875 C-173.09538183 -26.58382199 -147.08200296 -37.18483214 -120.5625 -40.8125 C-119.716875 -40.94140625 -118.87125 -41.0703125 -118 -41.203125 C-74.62288341 -46.77180889 -31.66982973 -28.92269229 0 0 Z " fill="#EA433B" transform="translate(466.5625,187.8125)"/>
<path d="M0 0 C5.27925416 2.34633518 9.32214263 6.67174429 12.15625 11.66015625 C14.27045402 17.52315721 13.98984742 24.3088506 11.625 30.0625 C8.72874192 35.29804345 6.45402401 36.93738973 1 39 C0.08565186 39.35928589 0.08565186 39.35928589 -0.84716797 39.72583008 C-4.83356428 41.26399768 -8.80524192 42.5416455 -12.93457031 43.63354492 C-28.22456102 47.73437103 -41.01660182 54.72062926 -53 65 C-53.54785156 65.46422363 -54.09570312 65.92844727 -54.66015625 66.40673828 C-71.51003985 80.82785385 -82.13847522 98.71676802 -91.76171875 118.46191406 C-94.40511915 123.880051 -97.0749772 129.28492262 -99.75 134.6875 C-100.30526367 135.82292236 -100.86052734 136.95834473 -101.43261719 138.12817383 C-101.96532227 139.20349365 -102.49802734 140.27881348 -103.046875 141.38671875 C-103.75602051 142.82857544 -103.75602051 142.82857544 -104.47949219 144.29956055 C-107.6056044 149.85157198 -110.64034344 152.96850765 -116.49609375 155.33203125 C-121.41488474 156.64422042 -126.33961386 156.45874114 -130.859375 153.98046875 C-135.07651256 150.69235406 -137.72431095 147.06145863 -138.43359375 141.7578125 C-138.46168347 115.63437469 -124.94442828 91.32063732 -110.875 70 C-110.50391113 69.43764648 -110.13282227 68.87529297 -109.75048828 68.29589844 C-96.71568477 49.07784691 -79.55802992 32.45803547 -60 20 C-59.42137207 19.6198877 -58.84274414 19.23977539 -58.24658203 18.84814453 C-48.10877664 12.3127574 -36.5765783 8.9470651 -25.16894531 5.32348633 C-24.19948975 5.01431526 -24.19948975 5.01431526 -23.21044922 4.69889832 C-21.42752226 4.13310518 -19.64205152 3.57534632 -17.85644531 3.01806641 C-6.71187635 -0.95397227 -6.71187635 -0.95397227 0 0 Z " fill="#FEFCFC" transform="translate(355,192)"/>
<path d="M0 0 C3.3 0 6.6 0 10 0 C9.99555878 0.69252365 9.99111755 1.3850473 9.98654175 2.09855652 C9.94592651 8.72897673 9.91574866 15.35936064 9.89637566 21.98987865 C9.88608004 25.39605847 9.87219299 28.80213282 9.84912109 32.20825195 C9.68521747 53.03247363 9.68521747 53.03247363 11.55856323 73.75004578 C12.29392644 79.48268352 12.29392644 79.48268352 10.55029297 82.55151367 C10.03869629 83.02951416 9.52709961 83.50751465 9 84 C7.35 83.67 5.7 83.34 4 83 C-1.45665233 65.23795218 -0.24418955 46.23693736 -0.125 27.875 C-0.11378839 25.16276622 -0.10568595 22.45052607 -0.09765625 19.73828125 C-0.07584142 13.15877381 -0.04255485 6.57940432 0 0 Z " fill="#58DFFF" transform="translate(683,0)"/>
</svg>
