<?xml version="1.0" encoding="UTF-8"?>
<svg version="1.1" xmlns="http://www.w3.org/2000/svg" width="735" height="2117">
<path d="M0 0 C1.99985573 1.7494368 3.96814693 3.52818681 5.9375 5.3125 C6.95841452 6.2032242 7.98056365 7.0925352 9.00390625 7.98046875 C54.65140049 48.06172641 73.40024795 114.79196739 77.25 173.3125 C82.78265177 271.36271162 55.9575092 383.2501282 -9.71630859 466.68994141 C-11.04966424 468.29702912 -12.36255266 469.91942077 -13.67578125 471.54296875 C-19.91417691 479.13563483 -26.70183408 486.15605402 -33.625 493.125 C-34.48722168 493.99648682 -35.34944336 494.86797363 -36.23779297 495.76586914 C-42.20469437 501.70395858 -48.48847522 507.06184782 -55.0625 512.3125 C-56.11253665 513.18868855 -57.15914906 514.06903441 -58.19921875 514.95703125 C-65.00139813 520.73836289 -72.03522959 526.13612451 -79.203125 531.453125 C-80.14188477 532.15018555 -80.14188477 532.15018555 -81.09960938 532.86132812 C-82.49285051 533.89135615 -83.89044882 534.91550216 -85.29101562 535.93554688 C-86.01482422 536.46728516 -86.73863281 536.99902344 -87.484375 537.546875 C-88.4758252 538.26955566 -88.4758252 538.26955566 -89.48730469 539.00683594 C-91.19692744 540.24533405 -91.19692744 540.24533405 -92.0625 542.3125 C-91.381875 542.4775 -90.70125 542.6425 -90 542.8125 C-84.67667896 545.5307916 -80.31613658 550.75928069 -78.0625 556.3125 C-77.22381731 561.58839926 -77.73126343 566.21612142 -80.640625 570.73828125 C-83.28038267 573.6608701 -86.60685393 575.49241457 -90.0625 577.3125 C-89.83433594 578.01375 -89.60617187 578.715 -89.37109375 579.4375 C-86.00651623 590.5421146 -86.00651623 590.5421146 -88.0625 596.3125 C-88.94498007 597.77123677 -89.86622744 599.20681374 -90.8125 600.625 C-101.46207574 617.18816227 -104.57297678 645.83302077 -100.89453125 664.9609375 C-97.59615656 678.24734824 -92.31868455 690.40876642 -86.67407227 702.84790039 C-73.91097246 731.22157312 -63.71152925 760.30098829 -66.8125 791.75 C-66.874375 792.49958984 -66.93625 793.24917969 -67 794.02148438 C-68.61181918 810.6097901 -73.40820953 826.35723649 -78.68878174 842.08789062 C-79.77426904 845.32231439 -80.8464807 848.56088902 -81.91552734 851.80078125 C-83.95454369 857.97469046 -86.00658278 864.14420137 -88.0625 870.3125 C-105.38624813 922.28902804 -113.9006899 970.25891581 -89.22949219 1021.48120117 C-87.57106115 1024.79351621 -85.82891588 1028.05676874 -84.0625 1031.3125 C-83.70349609 1031.98361816 -83.34449219 1032.65473633 -82.97460938 1033.34619141 C-77.82833357 1042.94250869 -72.30877158 1052.30049465 -66.6875 1061.625 C-35.02489436 1114.17926064 -30.91239477 1150.30775283 -45.43467712 1209.62460327 C-48.1709341 1220.81134199 -50.64132264 1232.05388029 -53.0625 1243.3125 C-53.26548706 1244.25569092 -53.46847412 1245.19888184 -53.6776123 1246.1706543 C-55.14513952 1252.99511899 -56.60502866 1259.82118153 -58.05865479 1266.64862061 C-58.55609996 1268.983846 -59.05457272 1271.31885276 -59.55413818 1273.65362549 C-64.64350122 1296.45733301 -64.64350122 1296.45733301 -66.375 1319.6875 C-66.37153564 1320.67411621 -66.36807129 1321.66073242 -66.36450195 1322.67724609 C-66.215168 1332.79730294 -65.47635016 1342.54507043 -60.0625 1351.3125 C-59.875 1354.125 -59.875 1354.125 -60.0625 1356.3125 C-61.7125 1356.9725 -63.3625 1357.6325 -65.0625 1358.3125 C-73.6005776 1350.69745781 -75.50954095 1339.44770051 -76.25585938 1328.46777344 C-76.39631536 1325.26883755 -76.46295645 1322.07675795 -76.5 1318.875 C-76.52215576 1317.8955542 -76.54431152 1316.9161084 -76.56713867 1315.90698242 C-76.50846394 1294.68516979 -70.58588259 1273.13773065 -66.4375 1252.4375 C-66.17544922 1251.12343061 -65.91348729 1249.8093435 -65.65161133 1248.49523926 C-62.28046499 1231.60379594 -58.65673826 1214.79511651 -54.5625 1198.0625 C-42.02801004 1146.65922505 -46.68576756 1116.05963827 -74.14941406 1070.86230469 C-75.9398752 1067.93188088 -77.73881036 1065.00667303 -79.53790283 1062.08154297 C-95.67927477 1035.81454369 -108.63406817 1009.62582186 -115.0625 979.3125 C-115.43181641 977.62447266 -115.43181641 977.62447266 -115.80859375 975.90234375 C-122.69657547 937.56716271 -110.09624253 899.83486289 -97.98596191 863.98207092 C-78.3258448 805.76775292 -72.05941003 764.00947136 -97.86816406 706.00048828 C-113.43704162 670.96096622 -118.32640001 639.41066255 -105.0625 602.3125 C-103.55163424 599.31519357 -101.9053381 596.48359503 -100.1640625 593.6171875 C-98.33380657 589.78792864 -98.89614682 587.32183907 -100.0625 583.3125 C-102.05619369 580.87035778 -102.05619369 580.87035778 -106 581.125 C-108.73886155 581.15059684 -110.40257532 581.42585844 -113.0625 582.3125 C-116.6875 582.4375 -116.6875 582.4375 -120.0625 582.3125 C-120.3925 581.9825 -120.7225 581.6525 -121.0625 581.3125 C-122.7021875 581.18875 -122.7021875 581.18875 -124.375 581.0625 C-128.0625 580.3125 -128.0625 580.3125 -130.5 578.3125 C-132.69555106 574.09704197 -133.14270484 570.96238836 -132.0625 566.3125 C-129.55857327 561.33193729 -126.42362407 556.92110117 -122.828125 552.671875 C-120.76292435 550.4033282 -120.76292435 550.4033282 -121.0625 547.3125 C-123.18233493 545.65851251 -123.18233493 545.65851251 -125.9375 544.125 C-134.55406962 538.86238321 -142.01124335 532.48743904 -149.4453125 525.68359375 C-150.9108605 524.35585101 -152.38451311 523.03648876 -153.88598633 521.74951172 C-158.72083643 517.60134029 -163.17110923 513.23378891 -167.5 508.5625 C-168.15250732 507.8614917 -168.80501465 507.1604834 -169.47729492 506.43823242 C-174.58692709 500.90897781 -179.42457428 495.24593569 -184.0625 489.3125 C-184.84753906 488.33410156 -185.63257813 487.35570312 -186.44140625 486.34765625 C-192.7058327 478.46648409 -198.22703511 470.18951451 -203.58105469 461.66943359 C-204.59072909 460.0630729 -205.6045777 458.45933011 -206.62207031 456.85791016 C-248.49472096 390.93970511 -271.68636729 317.06572801 -284.0625 240.3125 C-284.24103516 239.2085791 -284.41957031 238.1046582 -284.60351562 236.96728516 C-285.58158959 230.7637605 -286.39515156 224.55680621 -287.0625 218.3125 C-287.16401367 217.38953125 -287.26552734 216.4665625 -287.37011719 215.515625 C-294.16552173 151.3772957 -287.28588413 78.59248716 -246.0625 26.3125 C-245.32515625 25.36632812 -244.5878125 24.42015625 -243.828125 23.4453125 C-238.22926418 16.43680941 -232.20971307 9.8378678 -226.0625 3.3125 C-225.29550781 2.47976562 -224.52851563 1.64703125 -223.73828125 0.7890625 C-162.83194079 -63.11606212 -63.89958663 -54.27881617 0 0 Z " fill="#FFCE58" transform="translate(489.0625,216.6875)"/>
<path d="M0 0 C0.79921875 0.01804688 1.5984375 0.03609375 2.421875 0.0546875 C3.02515625 0.07789063 3.6284375 0.10109375 4.25 0.125 C4.25 0.785 4.25 1.445 4.25 2.125 C4.971875 2.3725 5.69375 2.62 6.4375 2.875 C9.82322897 4.37976843 11.81640204 5.27421382 14.25 8.125 C15.01636984 13.26280596 15.31184335 18.72194573 12.25 23.125 C10.23661967 24.77620001 8.23738858 26.3019934 6.125 27.8125 C-11.34490634 40.87659754 -20.08005328 59.39421639 -25.9296875 79.953125 C-27.87672987 86.40720991 -30.44290506 91.88396477 -34.75 97.125 C-38.22694743 98.86347372 -41.95668741 98.71667787 -45.75 98.125 C-48.625 95.875 -48.625 95.875 -50.75 93.125 C-51.28109375 92.59390625 -51.8121875 92.0628125 -52.359375 91.515625 C-54.49909658 87.83722722 -54.19754052 84.30545332 -54.125 80.125 C-54.11194824 79.26632324 -54.09889648 78.40764648 -54.08544922 77.52294922 C-53.41276214 52.53944518 -37.61413738 27.07111921 -19.75 10.125 C-7.09256995 -0.208605 -7.09256995 -0.208605 0 0 Z " fill="#FFFDFB" transform="translate(297.75,241.875)"/>
<path d="M0 0 C0.66 0.33 1.32 0.66 2 1 C-3.94 6.94 -9.88 12.88 -16 19 C-16.66 18.67 -17.32 18.34 -18 18 C-16.12973998 15.93302978 -14.25404816 13.87145703 -12.375 11.8125 C-11.59189453 10.9452832 -11.59189453 10.9452832 -10.79296875 10.06054688 C-7.41255947 6.36713674 -3.91565929 3.12194457 0 0 Z " fill="#FFF5DF" transform="translate(284,247)"/>
</svg>
